HIERARCHY
ROOT hip
{
	OFFSET 0.000000 0.000000 0.000000
	CHANNELS 6 Xposition Yposition Zposition Xrotation Zrotation Yrotation 
	JOINT abdomen
	{
		OFFSET 0.000000 3.422050 0.000000
		CHANNELS 3 Xrotation Zrotation Yrotation 
		JOINT chest
		{
			OFFSET 0.000000 8.486693 -0.684411
			CHANNELS 3 Xrotation Zrotation Yrotation 
			JOINT neck
			{
				OFFSET 0.000000 10.266162 -0.273764
				CHANNELS 3 Xrotation Zrotation Yrotation 
				JOINT head
				{
					OFFSET 0.000000 3.148285 0.000000
					CHANNELS 3 Xrotation Zrotation Yrotation 
					End Site
					{
						OFFSET 0.000000 3.148289 0.000000
					}
				}
			}
			JOINT lCollar
			{
				OFFSET 3.422053 6.707223 -0.821293
				CHANNELS 3 Yrotation Zrotation Xrotation 
				JOINT lShldr
				{
					OFFSET 3.285171 0.000000 0.000000
					CHANNELS 3 Zrotation Yrotation Xrotation 
					JOINT lForeArm
					{
						OFFSET 10.129278 0.000000 0.000000
						CHANNELS 3 Yrotation Zrotation Xrotation 
						JOINT lHand
						{
							OFFSET 8.486692 0.000000 0.000000
							CHANNELS 3 Zrotation Yrotation Xrotation 
							End Site
							{
								OFFSET 4.106464 0.000000 0.000000
							}
						}
					}
				}
			}
			JOINT rCollar
			{
				OFFSET -3.558935 6.707223 -0.821293
				CHANNELS 3 Yrotation Zrotation Xrotation 
				JOINT rShldr
				{
					OFFSET -3.148289 0.000000 0.000000
					CHANNELS 3 Zrotation Yrotation Xrotation 
					JOINT rForeArm
					{
						OFFSET -10.266159 0.000000 0.000000
						CHANNELS 3 Yrotation Zrotation Xrotation 
						JOINT rHand
						{
							OFFSET -8.349810 0.000000 0.000000
							CHANNELS 3 Zrotation Yrotation Xrotation 
							End Site
							{
								OFFSET -4.106464 0.000000 0.000000
							}
						}
					}
				}
			}
		}
	}
	JOINT lThigh
	{
		OFFSET 5.338403 -1.642589 1.368821
		CHANNELS 3 Xrotation Zrotation Yrotation 
		JOINT lShin
		{
			OFFSET -2.053232 -20.121670 0.000000
			CHANNELS 3 Xrotation Zrotation Yrotation 
			JOINT lFoot
			{
				OFFSET 0.000000 -19.300380 -1.231939
				CHANNELS 3 Xrotation Yrotation Zrotation 
				End Site
				{
					OFFSET 0.000000 -2.463878 4.653993
				}
			}
		}
	}
	JOINT rThigh
	{
		OFFSET -5.338403 -1.642589 1.368821
		CHANNELS 3 Xrotation Zrotation Yrotation 
		JOINT rShin
		{
			OFFSET 2.053232 -20.121670 0.000000
			CHANNELS 3 Xrotation Zrotation Yrotation 
			JOINT rFoot
			{
				OFFSET 0.000000 -19.300380 -1.231939
				CHANNELS 3 Xrotation Yrotation Zrotation 
				End Site
				{
					OFFSET 0.000000 -2.463878 4.653993
				}
			}
		}
	}
}
MOTION
Frames: 13
Frame Time: 0.033264
0.000000 43.528500 0.000000 0.000000 0.000000 0.000000 0.000000 0.000000 0.000000 0.000000 0.000000 0.000000 0.000000 0.000000 0.000000 0.000000 0.000000 0.000000 0.000000 0.000000 0.000000 0.000000 0.000000 0.000000 0.000000 0.000000 0.000000 0.000000 0.000000 0.000000 0.000000 0.000000 0.000000 0.000000 0.000000 0.000000 0.000000 0.000000 0.000000 0.000000 0.000000 0.000000 0.000000 0.000000 0.000000 0.000000 0.000000 0.000000 0.000000 0.000000 0.000000 0.000000 0.000000 0.000000 0.000000 0.000000 0.000000 0.000000 0.000000 0.000000 
1.192484 5.468124 13.922322 0.994064 48.999352 89.992828 20.564034 0.378217 -1.095417 15.280858 -2.464251 -0.978237 0.000000 0.000000 0.000000 0.274731 0.120166 0.201370 0.258852 -4.545805 -0.047473 1.365772 2.023389 -0.005612 -9.097213 16.948343 -0.268003 -68.013962 -27.007565 -41.999805 0.808803 30.704248 -4.972445 18.424564 -3.841374 -1.475759 38.135479 14.272823 -8.572214 14.333996 13.399646 19.181690 -108.153366 4.973292 0.037163 136.221634 -1.972135 -0.091481 40.886997 0.935430 2.654263 -90.117981 -46.130135 0.544776 121.112587 11.268569 -0.156987 11.834976 8.418776 2.057412 
1.192484 5.468124 13.922322 0.994061 48.999355 89.992828 20.564035 0.378217 -1.095418 15.280858 -2.464251 -0.978237 0.000000 0.000000 0.000000 0.529133 0.276597 0.377659 0.258852 -4.545805 -0.047473 1.365772 2.023389 -0.005612 -9.097213 16.948343 -0.268003 -68.013962 -27.007565 -41.999805 0.808803 30.704248 -4.972445 18.424564 -3.841374 -1.475759 37.911972 14.219466 -8.550597 14.179715 13.398292 19.180408 -108.153366 4.973292 0.037163 136.221634 -1.972135 -0.091481 40.886997 0.935430 2.654263 -90.117981 -46.130135 0.544776 121.112587 11.268570 -0.156988 11.834976 8.418776 2.057412 
1.192484 5.468124 13.922322 0.994064 48.999352 89.992828 20.564034 0.378217 -1.095417 15.280858 -2.464251 -0.978237 0.000000 0.000000 0.000000 0.784209 0.432358 0.554776 0.258852 -4.545805 -0.047473 1.365772 2.023389 -0.005612 -9.097214 16.948343 -0.268003 -68.013962 -27.007566 -41.999809 0.808803 30.704248 -4.972445 18.424564 -3.841374 -1.475759 37.688404 14.165999 -8.529188 14.025370 13.396933 19.179131 -108.153366 4.973292 0.037163 136.221634 -1.972135 -0.091481 40.886997 0.935430 2.654263 -90.117996 -46.130138 0.544779 121.112587 11.268569 -0.156987 11.834978 8.418777 2.057412 
1.192484 5.468124 13.922322 0.994064 48.999355 89.992844 20.564035 0.378217 -1.095418 15.280858 -2.464251 -0.978237 0.000000 0.000000 0.000000 1.039958 0.587441 0.732718 0.258852 -4.545806 -0.047473 1.365772 2.023389 -0.005612 -9.097215 16.948343 -0.268003 -68.013969 -27.007566 -41.999805 0.808804 30.704252 -4.972445 18.424564 -3.841375 -1.475759 37.464764 14.112415 -8.507985 13.870955 13.395570 19.177853 -108.153366 4.973292 0.037163 136.221634 -1.972135 -0.091481 40.886997 0.935430 2.654263 -90.117996 -46.130142 0.544776 121.112587 11.268570 -0.156988 11.834977 8.418777 2.057412 
1.192484 5.468124 13.922322 0.994061 48.999348 89.992821 20.564034 0.378217 -1.095417 15.280856 -2.464250 -0.978237 0.000000 0.000000 0.000000 1.296375 0.741836 0.911483 0.258852 -4.545805 -0.047473 1.365772 2.023388 -0.005612 -9.097213 16.948341 -0.268003 -68.013962 -27.007565 -41.999805 0.808803 30.704245 -4.972445 18.424564 -3.841374 -1.475759 37.241062 14.058722 -8.486992 13.716473 13.394197 19.176579 -108.153366 4.973292 0.037163 136.221634 -1.972135 -0.091481 40.886997 0.935430 2.654263 -90.117973 -46.130131 0.544773 121.112587 11.268569 -0.156987 11.834974 8.418776 2.057412 
1.192484 5.468124 13.922322 0.994064 48.999352 89.992828 20.564034 0.378217 -1.095417 15.280858 -2.464251 -0.978237 0.000000 0.000000 0.000000 1.553460 0.895533 1.091068 0.258852 -4.545805 -0.047473 1.365772 2.023389 -0.005612 -9.097213 16.948343 -0.268003 -68.013962 -27.007565 -41.999805 0.808803 30.704248 -4.972445 18.424564 -3.841374 -1.475759 37.017284 14.004908 -8.466203 13.561928 13.392829 19.175308 -108.153366 4.973292 0.037163 136.221634 -1.972135 -0.091481 40.886993 0.935430 2.654263 -90.117981 -46.130127 0.544782 121.112587 11.268569 -0.156987 11.834976 8.418776 2.057412 
1.192484 5.468124 13.922322 0.994064 48.999352 89.992828 20.564034 0.378217 -1.095417 15.280858 -2.464251 -0.978237 0.000000 0.000000 0.000000 1.811211 1.048525 1.271469 0.258852 -4.545805 -0.047473 1.365772 2.023389 -0.005612 -9.097213 16.948343 -0.268003 -68.013962 -27.007565 -41.999805 0.808803 30.704248 -4.972445 18.424564 -3.841374 -1.475759 36.793453 13.950990 -8.445627 13.407323 13.391456 19.174044 -108.153366 4.973292 0.037163 136.221634 -1.972135 -0.091481 40.886997 0.935430 2.654263 -90.117981 -46.130135 0.544776 121.112587 11.268569 -0.156987 11.834976 8.418776 2.057412 
1.192484 5.468124 13.922322 0.994064 48.999352 89.992828 20.564034 0.378217 -1.095417 15.280858 -2.464251 -0.978237 0.000000 0.000000 0.000000 2.069623 1.200802 1.452685 0.258852 -4.545805 -0.047473 1.365772 2.023389 -0.005612 -9.097213 16.948343 -0.268003 -68.013962 -27.007565 -41.999805 0.808803 30.704248 -4.972445 18.424564 -3.841374 -1.475759 36.569550 13.896958 -8.425258 13.252645 13.390073 19.172777 -108.153366 4.973292 0.037163 136.221634 -1.972135 -0.091481 40.886997 0.935430 2.654263 -90.117981 -46.130135 0.544776 121.112587 11.268569 -0.156987 11.834976 8.418776 2.057412 
1.192484 5.468124 13.922322 0.994067 48.999355 89.992828 20.564035 0.378217 -1.095417 15.280858 -2.464251 -0.978237 0.000000 0.000000 0.000000 2.328696 1.352356 1.634713 0.258852 -4.545805 -0.047473 1.365772 2.023389 -0.005612 -9.097214 16.948343 -0.268003 -68.013969 -27.007566 -41.999805 0.808803 30.704248 -4.972445 18.424564 -3.841374 -1.475759 36.345600 13.842821 -8.405102 13.097910 13.388689 19.171516 -108.153366 4.973292 0.037163 136.221634 -1.972135 -0.091481 40.886997 0.935430 2.654263 -90.117981 -46.130135 0.544776 121.112587 11.268569 -0.156987 11.834978 8.418777 2.057412 
1.192484 5.468124 13.922322 0.994067 48.999355 89.992844 20.564035 0.378217 -1.095417 15.280860 -2.464251 -0.978237 0.000000 0.000000 0.000000 2.588425 1.503177 1.817548 0.258852 -4.545806 -0.047473 1.365772 2.023389 -0.005612 -9.097214 16.948343 -0.268003 -68.013969 -27.007566 -41.999805 0.808804 30.704256 -4.972445 18.424566 -3.841375 -1.475759 36.121582 13.788573 -8.385156 12.943112 13.387303 19.170263 -108.153366 4.973292 0.037163 136.221634 -1.972135 -0.091481 40.886997 0.935430 2.654263 -90.117981 -46.130135 0.544776 121.112587 11.268569 -0.156987 11.834977 8.418777 2.057412 
1.192484 5.468124 13.922322 0.994060 48.999348 89.992828 20.564034 0.378217 -1.095417 15.280858 -2.464251 -0.978237 0.000000 0.000000 0.000000 2.848810 1.653256 2.001189 0.258852 -4.545805 -0.047473 1.365772 2.023388 -0.005612 -9.097213 16.948341 -0.268003 -68.013962 -27.007565 -41.999805 0.808803 30.704248 -4.972445 18.424564 -3.841374 -1.475759 35.897522 13.734223 -8.365424 12.788251 13.385914 19.169012 -108.153366 4.973292 0.037163 136.221634 -1.972135 -0.091481 40.886997 0.935430 2.654263 -90.117981 -46.130135 0.544776 121.112572 11.268568 -0.156987 11.834974 8.418776 2.057412 
1.192484 5.468124 13.922322 0.994061 48.999348 89.992821 20.564034 0.378217 -1.095417 15.280858 -2.464251 -0.978237 0.000000 0.000000 0.000000 3.109846 1.802585 2.185632 0.258852 -4.545805 -0.047473 1.365772 2.023389 -0.005612 -9.097213 16.948341 -0.268003 -68.013962 -27.007563 -41.999802 0.808804 30.704248 -4.972445 18.424564 -3.841374 -1.475759 35.673389 13.679764 -8.345902 12.633328 13.384519 19.167763 -108.153366 4.973292 0.037163 136.221619 -1.972135 -0.091481 40.886993 0.935430 2.654263 -90.117981 -46.130135 0.544776 121.112587 11.268569 -0.156987 11.834976 8.418776 2.057412 
